<?xml version="1.0" encoding="UTF-8"?>
<svg xmlns="http://www.w3.org/2000/svg" xmlns:xlink="http://www.w3.org/1999/xlink" viewBox="0 0 480 480" width="480px" height="480px">
<g id="surface20763272">
<rect x="0" y="0" width="480" height="480" style="fill:rgb(90.588236%,29.803923%,23.529412%);fill-opacity:1;stroke:none;"/>
<path style=" stroke:none;fill-rule:nonzero;fill:rgb(100%,100%,100%);fill-opacity:1;" d="M 406.847656 53.328125 C 403.808594 49.9375 399.472656 48 394.929688 48 L 85.070312 48 C 80.527344 48 76.191406 49.9375 73.152344 53.328125 C 70.113281 56.71875 68.671875 61.246094 69.167969 65.761719 L 104.398438 382.929688 C 105.105469 389.375 109.664062 394.769531 115.902344 396.542969 L 235.585938 430.734375 C 237.023438 431.152344 238.511719 431.359375 239.984375 431.359375 C 241.457031 431.359375 242.945312 431.152344 244.382812 430.734375 L 364.0625 396.542969 C 370.304688 394.769531 374.847656 389.375 375.566406 382.929688 L 410.816406 65.761719 C 411.328125 61.246094 409.886719 56.71875 406.847656 53.328125 Z M 330.0625 166.878906 L 187.183594 166.878906 L 190.574219 207.550781 L 326.625 207.550781 L 316.414062 327.710938 L 240.046875 352 L 239.296875 351.761719 L 163.777344 327.679688 L 159.648438 278.71875 L 196.640625 278.71875 L 198.257812 297.742188 L 240.449219 307.039062 L 281.902344 297.726562 L 286.304688 246.320312 L 156.863281 246.320312 L 146.847656 128 L 333.390625 128 Z M 330.0625 166.878906 "/>
</g>
</svg>
