<?xml version="1.0" encoding="UTF-8"?>
<svg xmlns="http://www.w3.org/2000/svg" xmlns:xlink="http://www.w3.org/1999/xlink" viewBox="0 0 150 150" width="150px" height="150px">
<g id="surface20377112">
<path style=" stroke:none;fill-rule:nonzero;fill:rgb(20.392157%,14.901961%,15.294118%);fill-opacity:1;" d="M 75 6 C 36.953125 6 6 36.949219 6 75 C 6 113.050781 36.953125 144 75 144 C 113.046875 144 144 113.050781 144 75 C 144 36.949219 113.046875 6 75 6 Z M 54 105 L 42 105 L 42 60 L 54 60 Z M 48 51 C 44.683594 51 42 48.316406 42 45 C 42 41.683594 44.683594 39 48 39 C 51.316406 39 54 41.683594 54 45 C 54 48.316406 51.316406 51 48 51 Z M 111 105 L 99 105 L 99 82.5 C 99 76.726562 94.273438 72 88.5 72 C 82.726562 72 78 76.726562 78 82.5 L 78 105 L 66 105 L 66 60 L 78 60 L 78 65.449219 C 81.503906 62.082031 86.257812 60 91.5 60 C 102.269531 60 111 68.730469 111 79.5 Z M 111 105 "/>
</g>
</svg>
